# xmcd
#
# Track frame offsets:
#	150
#	24726
#	60580
#
# Disc length: 1246 seconds
# Revision: 1
# Processed by: cddbd v1.5.2PL0 Copyright (c) Steve Scherf et al.
# Submitted via: dBpowerAMP V12.0
#
DISCID=1f04dc03
DTITLE=Lester Levenson - Lester on Depression
DYEAR=2006
DGENRE=Home Study
TTITLE0=Lester on Depression pt 1
TTITLE1=Lester on Depression pt 2
TTITLE2=Lester on Depression pt 3
EXTD=
EXTT0=
EXTT1=
EXTT2=
PLAYORDER=
